<?xml version="1.0" encoding="UTF-8" standalone="no"?>
<!-- Created with Inkscape (http://www.inkscape.org/) -->

<svg
   xmlns:dc="http://purl.org/dc/elements/1.1/"
   xmlns:cc="http://creativecommons.org/ns#"
   xmlns:rdf="http://www.w3.org/1999/02/22-rdf-syntax-ns#"
   xmlns:svg="http://www.w3.org/2000/svg"
   xmlns="http://www.w3.org/2000/svg"
   xmlns:sodipodi="http://sodipodi.sourceforge.net/DTD/sodipodi-0.dtd"
   xmlns:inkscape="http://www.inkscape.org/namespaces/inkscape"
   width="2in"
   height="2in"
   viewBox="0 0 50.800001 50.800001"
   version="1.1"
   id="svg8"
   sodipodi:docname="sample_pcb_outline.svg"
   inkscape:version="0.92.4 5da689c313, 2019-01-14">
  <defs
     id="defs2" />
  <sodipodi:namedview
     id="base"
     pagecolor="#ffffff"
     bordercolor="#666666"
     borderopacity="1.0"
     inkscape:pageopacity="0.0"
     inkscape:pageshadow="2"
     inkscape:zoom="4.3333333"
     inkscape:cx="95.769231"
     inkscape:cy="116.87605"
     inkscape:document-units="mm"
     inkscape:current-layer="layer1"
     showgrid="true"
     units="in"
     inkscape:window-width="1920"
     inkscape:window-height="1027"
     inkscape:window-x="0"
     inkscape:window-y="28"
     inkscape:window-maximized="1">
    <inkscape:grid
       type="xygrid"
       id="grid10"
       units="in"
       spacingx="0.254"
       spacingy="0.254" />
  </sodipodi:namedview>
  <metadata
     id="metadata5">
    <rdf:RDF>
      <cc:Work
         rdf:about="">
        <dc:format>image/svg+xml</dc:format>
        <dc:type
           rdf:resource="http://purl.org/dc/dcmitype/StillImage" />
        <dc:title></dc:title>
      </cc:Work>
    </rdf:RDF>
  </metadata>
  <g
     inkscape:label="Layer 1"
     inkscape:groupmode="layer"
     id="layer1"
     transform="translate(0,-246.19998)">
    <path
       id="path4550"
       transform="matrix(0.26458333,0,0,0.26458333,0,246.19998)"
       style="fill:none;stroke:#000000;stroke-width:0.95999992;stroke-miterlimit:4;stroke-dasharray:none"
       d="m 16.800781,9.5996094 -1.451391,0.1461053 -1.351834,0.4194873 -1.223307,0.663899 -1.065809,0.879339 -0.879339,1.065808 -0.663899,1.223307 -0.4194874,1.351835 -0.1461052,1.451391 0.1464463,1.451088 0.4197093,1.35151 0.664011,1.222981 0.879355,1.065499 1.065738,0.879066 1.223161,0.66368 1.351624,0.419342 L 16.800781,24 l 1.450825,-0.146394 1.3513,-0.419563 1.222835,-0.663793 1.065428,-0.879081 0.879081,-1.065428 0.663793,-1.222835 0.419563,-1.3513 L 24,16.800781 23.853947,15.349654 23.434605,13.99803 22.770925,12.774869 21.891859,11.709131 20.82636,10.829776 19.603379,10.165765 18.251869,9.7460557 Z m 158.398439,0 -1.45109,0.1464462 -1.35151,0.4197084 -1.22298,0.664012 -1.0655,0.879355 -0.87906,1.065737 -0.66368,1.223161 -0.41935,1.351624 -0.14605,1.451128 0.1464,1.450825 0.41956,1.3513 0.66379,1.222835 0.87908,1.065428 1.06543,0.879081 1.22283,0.663793 1.3513,0.419564 1.45083,0.146393 1.45113,-0.146053 1.35162,-0.419343 1.22316,-0.66368 1.06574,-0.879065 0.87935,-1.065499 0.66401,-1.222981 0.41971,-1.35151 0.14645,-1.451088 -0.14611,-1.45139 -0.41948,-1.351835 -0.6639,-1.223307 -0.87934,-1.065808 -1.06581,-0.879339 -1.22331,-0.663899 -1.35183,-0.4194879 z M 16.800781,168 l -1.451128,0.14605 -1.351624,0.41935 -1.223161,0.66368 -1.065737,0.87906 -0.879355,1.0655 -0.664011,1.22298 -0.4197093,1.35151 -0.1464463,1.45109 0.1461057,1.45139 0.4194879,1.35183 0.663899,1.22331 0.879339,1.06581 1.065808,0.87934 1.223307,0.6639 1.351835,0.41948 1.45139,0.14611 1.451088,-0.14645 1.35151,-0.41971 1.22298,-0.66401 1.0655,-0.87935 0.879066,-1.06574 0.66368,-1.22316 0.419342,-1.35162 L 24,175.19922 l -0.146393,-1.45083 -0.419564,-1.3513 -0.663793,-1.22283 -0.879081,-1.06543 -1.065428,-0.87908 -1.222835,-0.66379 -1.3513,-0.41956 z m 158.398439,0 -1.45083,0.1464 -1.3513,0.41956 -1.22283,0.66379 -1.06543,0.87908 -0.87908,1.06543 -0.66379,1.22283 -0.41956,1.3513 -0.1464,1.45083 0.14605,1.45113 0.41935,1.35162 0.66368,1.22316 0.87906,1.06574 1.0655,0.87935 1.22298,0.66401 1.35151,0.41971 1.45109,0.14645 1.45139,-0.14611 1.35183,-0.41948 1.22331,-0.6639 1.06581,-0.87934 0.87934,-1.06581 0.6639,-1.22331 0.41948,-1.35183 0.14611,-1.45139 -0.14645,-1.45109 -0.41971,-1.35151 -0.66401,-1.22298 -0.87935,-1.0655 -1.06574,-0.87906 -1.22316,-0.66368 -1.35162,-0.41935 z M 6.999995,0 H 185.00001 l 1.41419,0.14173229 1.31559,0.40667717 1.18926,0.64391814 1.0352,0.8534173 0.85343,1.0352126 0.64392,1.1892662 0.40668,1.3155779 0.14173,1.4141859 V 185.00001 l -0.14173,1.41419 -0.40668,1.31558 -0.64392,1.18926 -0.85343,1.03522 -1.0352,0.85341 -1.18926,0.64392 -1.31559,0.40668 L 185.00001,192 H 6.999995 L 5.585805,191.85827 4.2702165,191.45159 3.0809557,190.80767 2.0457496,189.95426 1.1923246,188.91904 0.54840719,187.72978 0.14172397,186.4142 1.4417754e-6,185.00001 V 6.9999875 L 0.14172397,5.5858016 0.54840719,4.2702237 1.1923246,3.0809575 2.0457496,2.0457449 3.0809557,1.1923276 4.2702165,0.54840946 5.5858202,0.14173229 Z"
       inkscape:connector-curvature="0" />
  </g>
</svg>
